# Blender v2.79 (sub 0) OBJ File: 'PBgun.blend'
# www.blender.org
mtllib PBgun.mtl
o Cube
v 1.000000 -1.000000 -4.715633
v 1.000000 -1.000000 1.000000
v -1.000000 -1.000000 1.000000
v -1.000000 -1.000000 -4.715633
v 1.000000 1.000000 -4.715632
v 0.999999 1.000000 1.000001
v -1.000000 1.000000 1.000000
v -1.000000 1.000000 -4.715633
v 1.000000 -1.000000 1.722903
v -1.000000 -1.000000 1.722903
v 0.999999 1.000000 1.722904
v -1.000001 1.000000 1.722903
v 1.432617 -1.432617 2.516564
v -1.432617 -1.432617 2.516563
v 1.432616 1.432617 2.516565
v -1.432618 1.432617 2.516563
v 1.742310 -1.742310 3.032464
v -1.742311 -1.742310 3.032463
v 1.742309 1.742310 3.032465
v -1.742311 1.742310 3.032463
v 1.742308 -1.742311 8.817083
v -1.742312 -1.742311 8.817083
v 1.742307 1.742309 8.817085
v -1.742312 1.742309 8.817083
v 1.575364 -1.575367 9.314585
v -1.575367 -1.575367 9.314585
v 1.575362 1.575364 9.314587
v -1.575368 1.575364 9.314585
v 1.289488 -1.289492 9.771840
v -1.289493 -1.289492 9.771840
v 1.289487 1.289489 9.771842
v -1.289493 1.289489 9.771840
v 0.375147 -0.375151 10.044231
v -0.375152 -0.375151 10.044231
v 0.375147 0.375148 10.044232
v -0.375152 0.375148 10.044231
v 1.000000 -1.000000 -6.559903
v -0.999999 -1.000000 -6.559903
v 1.000001 1.000000 -6.559902
v -1.000000 1.000000 -6.559903
v 1.000000 6.093966 -5.840945
v -1.000000 6.093966 -5.840945
v 1.000001 6.093967 -7.685215
v -1.000000 6.093967 -7.685215
v 1.000000 7.573066 -5.840944
v -1.000000 7.573066 -5.840945
v 1.000001 7.573066 -7.685214
v -1.000000 7.573066 -7.685215
v 1.000003 6.093970 -11.087411
v -0.999998 6.093970 -11.087412
v 1.000003 7.573070 -11.087411
v -0.999998 7.573070 -11.087411
v 1.000000 6.093965 -1.831139
v -1.000001 6.093965 -1.831140
v 1.000000 7.573064 -1.831139
v -1.000001 7.573064 -1.831139
v 0.339355 -0.695343 -7.061812
v -0.379054 -0.695343 -7.061813
v 0.339355 0.695344 -7.061812
v -0.379054 0.695344 -7.061812
v 0.339356 -0.276228 -8.945511
v -0.379053 -0.276228 -8.945512
v 0.339356 0.695345 -8.945510
v -0.379053 0.695345 -8.945511
v 0.339357 0.445599 -10.201652
v -0.379052 0.445599 -10.201653
v 0.339357 0.960815 -9.982328
v -0.379052 0.960816 -9.982329
v 0.339357 1.002929 -10.788466
v -0.379051 1.002930 -10.788467
v 0.339358 1.387901 -10.466678
v -0.379052 1.387902 -10.466679
v 0.339359 2.256637 -11.859515
v -0.379050 2.256638 -11.859515
v 0.339359 2.361537 -11.275173
v -0.379050 2.361538 -11.275173
v 0.339362 5.967662 -12.108535
v -0.379047 5.967663 -12.108535
v 0.339362 5.934456 -11.492669
v -0.379047 5.934457 -11.492669
v 1.000003 6.093971 -12.522810
v -0.999997 6.093971 -12.522811
v 1.000003 7.573070 -12.522810
v -0.999997 7.573070 -12.522810
v 1.000004 6.093973 -17.551208
v -0.999996 6.093973 -17.551210
v 1.000004 7.573072 -17.551208
v -0.999996 7.573072 -17.551208
v 1.000000 7.976660 -5.840944
v -1.000000 7.976660 -5.840945
v 1.000001 7.976660 -7.685214
v -1.000000 7.976660 -7.685215
v 1.413675 8.579014 -5.459480
v -1.413675 8.579014 -5.459480
v 1.413676 8.579014 -8.066678
v -1.413674 8.579014 -8.066678
v 1.761412 8.962057 -4.236053
v -1.761412 8.962057 -4.236054
v 1.761413 8.962057 -9.263803
v -1.761411 8.962057 -9.263803
v 1.761412 11.646976 -4.236053
v -1.761412 11.646976 -4.236054
v 1.761413 11.646976 -9.263803
v -1.761411 11.646976 -9.263803
v 1.281595 9.243745 -3.813433
v -1.281594 9.243745 -3.813433
v 1.281595 11.268209 -3.813433
v -1.281594 11.268209 -3.813433
v 0.896162 9.470021 -3.471612
v -0.896162 9.470021 -3.471612
v 0.896162 10.927117 -3.471612
v -0.896162 10.927117 -3.471612
v 1.343464 9.207423 -9.893045
v -1.343462 9.207423 -9.893045
v 1.343464 11.189715 -9.893045
v -1.343462 11.189715 -9.893045
v 0.653945 9.612220 -10.310382
v -0.653943 9.612220 -10.310382
v 0.653945 10.784919 -10.310382
v -0.653943 10.784919 -10.310382
v 1.000005 6.093974 -19.855255
v -0.999995 6.093974 -19.855257
v 1.000005 7.573073 -19.855255
v -0.999995 7.573073 -19.855255
v 1.000004 7.975149 -17.551208
v -0.999996 7.975149 -17.551208
v 1.000005 7.975150 -19.855255
v -0.999995 7.975150 -19.855255
v 1.000004 5.742997 -17.551208
v -0.999996 5.742997 -17.551210
v 1.000005 5.742998 -19.855255
v -0.999995 5.742998 -19.855257
v 1.202457 7.573072 -17.551208
v 1.202457 6.093973 -17.551208
v 1.202459 7.573073 -19.855255
v 1.202459 6.093974 -19.855255
v 1.202457 7.975149 -17.551208
v 1.202459 7.975150 -19.855255
v 1.202459 5.742998 -19.855255
v 1.202457 5.742997 -17.551208
v -1.181400 6.093973 -17.551210
v -1.181400 7.573072 -17.551208
v -1.181399 6.093974 -19.855257
v -1.181399 7.573073 -19.855255
v -1.181399 7.975150 -19.855255
v -1.181400 7.975149 -17.551208
v -1.181399 5.742998 -19.855257
v -1.181400 5.742997 -17.551210
v -0.999998 6.093969 -9.891590
v 1.000002 6.093969 -9.891589
v -0.999998 7.573068 -9.891589
v 1.000002 7.573068 -9.891589
v 1.000002 6.093968 -9.189514
v 1.000002 7.573068 -9.189514
v -0.999999 6.093968 -9.189515
v -0.999999 7.573068 -9.189514
v -0.400505 1.000000 -6.559902
v -0.400505 6.093967 -7.685215
v -0.400504 6.093970 -11.087412
v -0.163713 0.695344 -7.061812
v -0.163712 0.695345 -8.945511
v -0.163711 0.960815 -9.982328
v -0.163710 1.387902 -10.466679
v -0.163709 2.361538 -11.275173
v -0.163706 5.934456 -11.492669
v -0.400504 6.093969 -9.891590
v -0.400505 6.093968 -9.189514
v 0.383080 6.093969 -9.891590
v 0.383080 6.093968 -9.189514
v 0.383079 1.000000 -6.559902
v 0.383079 6.093967 -7.685215
v 0.383081 6.093970 -11.087412
v 0.117754 0.695344 -7.061812
v 0.117755 0.695345 -8.945511
v 0.117756 0.960815 -9.982328
v 0.117757 1.387902 -10.466679
v 0.117758 2.361537 -11.275173
v 0.117761 5.934456 -11.492669
v -0.316551 5.947161 -9.264736
v -0.316551 5.947161 -9.816370
v 0.299127 5.947161 -9.816370
v 0.299126 5.947161 -9.264736
v -0.316551 4.194700 -8.562010
v -0.316551 4.194700 -9.113644
v 0.299127 4.194700 -9.113644
v 0.299126 4.194700 -8.562010
vn 0.0000 -1.0000 0.0000
vn 0.0000 1.0000 0.0000
vn 1.0000 0.0000 0.0000
vn -1.0000 -0.0000 -0.0000
vn 0.0000 0.2157 0.9765
vn -0.8780 -0.0000 -0.4786
vn -0.8574 -0.0000 -0.5147
vn 0.0000 -0.8780 -0.4786
vn 0.0000 0.8780 -0.4786
vn 0.8780 0.0000 -0.4786
vn 0.0000 -0.8574 -0.5147
vn 0.0000 0.8574 -0.5147
vn 0.8574 0.0000 -0.5147
vn -0.9480 -0.0000 0.3181
vn 0.0000 -0.8479 0.5301
vn 0.0000 -0.9480 0.3181
vn -0.0000 0.9480 0.3181
vn 0.9480 0.0000 0.3181
vn -0.0000 0.2855 0.9584
vn -0.0000 0.8479 0.5301
vn 0.8479 -0.0000 0.5301
vn -0.8479 -0.0000 0.5301
vn 0.0000 -0.0000 1.0000
vn 0.2855 -0.0000 0.9584
vn -0.2855 -0.0000 0.9584
vn 0.0000 -0.2855 0.9584
vn 0.0000 0.8548 -0.5189
vn 0.0000 -0.2157 -0.9765
vn 0.6049 0.0000 -0.7963
vn -0.6286 0.0000 -0.7777
vn 0.0000 -0.8548 -0.5189
vn -0.0000 0.9687 0.2480
vn 0.0000 -0.9761 -0.2172
vn -0.0000 -0.8670 -0.4982
vn 0.0000 -0.6495 -0.7603
vn -0.0000 -0.7251 -0.6887
vn -0.0000 0.7501 0.6614
vn 0.0000 0.0608 0.9982
vn -0.0000 0.6388 0.7693
vn 0.0000 -0.0670 -0.9978
vn 0.2113 -0.9773 -0.0158
vn -0.2241 -0.9744 -0.0158
vn -0.0000 -0.9305 0.3663
vn -0.0000 -0.9565 -0.2916
vn 0.0000 -0.5350 0.8448
vn 0.0000 0.0000 -1.0000
vn -0.7404 -0.6722 -0.0000
vn -0.8243 -0.5661 -0.0000
vn 0.0000 -0.5350 -0.8448
vn 0.8243 -0.5661 0.0000
vn 0.0000 -0.9524 -0.3047
vn 0.7404 -0.6722 0.0000
vn 0.0000 -0.9543 0.2988
vn 0.6610 0.0000 0.7504
vn -0.8330 0.0000 -0.5533
vn 0.0000 0.7079 0.7064
vn -0.0000 -0.8321 0.5546
vn -0.6610 0.0000 0.7504
vn -0.0000 0.7447 0.6674
vn 0.6635 0.0000 0.7482
vn 0.0000 -0.8339 0.5520
vn -0.6635 0.0000 0.7482
vn -0.5178 0.0000 -0.8555
vn 0.0000 0.8090 -0.5879
vn 0.0000 -0.9317 -0.3633
vn 0.8330 0.0000 -0.5533
vn 0.0000 0.7178 -0.6962
vn 0.5178 0.0000 -0.8555
vn 0.0000 -0.7178 -0.6962
vn -0.8681 -0.4964 -0.0000
vn 0.0000 -0.4560 0.8900
vn 0.8681 -0.4964 0.0000
vn 0.0000 -0.4560 -0.8900
vn 0.0000 -0.3722 -0.9282
vn 0.0000 0.3722 0.9282
usemtl Material
s off
f 1//1 2//1 3//1 4//1
f 5//2 8//2 7//2 6//2
f 1//3 5//3 6//3 2//3
f 3//1 2//1 9//1 10//1
f 3//4 7//4 8//4 4//4
f 8//5 5//5 41//5 42//5
f 12//6 10//6 14//6 16//6
f 6//2 7//2 12//2 11//2
f 7//4 3//4 10//4 12//4
f 2//3 6//3 11//3 9//3
f 16//7 14//7 18//7 20//7
f 10//8 9//8 13//8 14//8
f 11//9 12//9 16//9 15//9
f 9//10 11//10 15//10 13//10
f 19//2 20//2 24//2 23//2
f 14//11 13//11 17//11 18//11
f 15//12 16//12 20//12 19//12
f 13//13 15//13 19//13 17//13
f 24//14 22//14 26//14 28//14
f 17//3 19//3 23//3 21//3
f 20//4 18//4 22//4 24//4
f 18//1 17//1 21//1 22//1
f 26//15 25//15 29//15 30//15
f 22//16 21//16 25//16 26//16
f 23//17 24//17 28//17 27//17
f 21//18 23//18 27//18 25//18
f 31//19 32//19 36//19 35//19
f 27//20 28//20 32//20 31//20
f 25//21 27//21 31//21 29//21
f 28//22 26//22 30//22 32//22
f 33//23 35//23 36//23 34//23
f 29//24 31//24 35//24 33//24
f 32//25 30//25 34//25 36//25
f 30//26 29//26 33//26 34//26
f 170//27 39//27 59//27 173//27
f 4//4 8//4 40//4 38//4
f 1//1 4//1 38//1 37//1
f 5//3 1//3 37//3 39//3
f 166//1 149//1 50//1 159//1
f 40//4 8//4 42//4 44//4
f 157//28 40//28 44//28 158//28
f 5//3 39//3 43//3 41//3
f 45//3 47//3 91//3 89//3
f 41//3 43//3 47//3 45//3
f 45//2 46//2 56//2 55//2
f 44//4 42//4 46//4 48//4
f 51//3 49//3 81//3 83//3
f 149//4 151//4 52//4 50//4
f 152//3 150//3 49//3 51//3
f 151//2 152//2 51//2 52//2
f 54//23 53//23 55//23 56//23
f 46//4 42//4 54//4 56//4
f 42//1 41//1 53//1 54//1
f 41//3 45//3 55//3 53//3
f 58//4 60//4 64//4 62//4
f 39//29 37//29 57//29 59//29
f 38//30 40//30 60//30 58//30
f 37//31 38//31 58//31 57//31
f 174//32 63//32 67//32 175//32
f 57//33 58//33 62//33 61//33
f 173//2 59//2 63//2 174//2
f 59//3 57//3 61//3 63//3
f 66//4 68//4 72//4 70//4
f 63//3 61//3 65//3 67//3
f 62//4 64//4 68//4 66//4
f 61//34 62//34 66//34 65//34
f 69//35 70//35 74//35 73//35
f 65//36 66//36 70//36 69//36
f 175//37 67//37 71//37 176//37
f 67//3 65//3 69//3 71//3
f 177//38 75//38 79//38 178//38
f 176//39 71//39 75//39 177//39
f 71//3 69//3 73//3 75//3
f 70//4 72//4 76//4 74//4
f 75//3 73//3 77//3 79//3
f 74//4 76//4 80//4 78//4
f 73//40 74//40 78//40 77//40
f 83//3 81//3 85//3 87//3
f 52//2 51//2 83//2 84//2
f 50//4 52//4 84//4 82//4
f 88//23 87//23 125//23 126//23
f 84//2 83//2 87//2 88//2
f 82//4 84//4 88//4 86//4
f 81//1 82//1 86//1 85//1
f 77//41 81//41 49//41 79//41
f 80//42 50//42 82//42 78//42
f 172//43 178//43 79//43 49//43
f 78//44 82//44 81//44 77//44
f 90//45 89//45 93//45 94//45
f 46//23 45//23 89//23 90//23
f 48//4 46//4 90//4 92//4
f 47//46 48//46 92//46 91//46
f 96//47 94//47 98//47 100//47
f 92//48 90//48 94//48 96//48
f 91//49 92//49 96//49 95//49
f 89//50 91//50 95//50 93//50
f 97//3 99//3 103//3 101//3
f 95//51 96//51 100//51 99//51
f 93//52 95//52 99//52 97//52
f 94//53 93//53 97//53 98//53
f 102//2 101//2 103//2 104//2
f 97//54 101//54 107//54 105//54
f 100//4 98//4 102//4 104//4
f 100//55 104//55 116//55 114//55
f 107//56 108//56 112//56 111//56
f 98//57 97//57 105//57 106//57
f 102//58 98//58 106//58 108//58
f 101//59 102//59 108//59 107//59
f 110//23 109//23 111//23 112//23
f 105//60 107//60 111//60 109//60
f 106//61 105//61 109//61 110//61
f 108//62 106//62 110//62 112//62
f 114//63 116//63 120//63 118//63
f 104//64 103//64 115//64 116//64
f 99//65 100//65 114//65 113//65
f 103//66 99//66 113//66 115//66
f 117//46 118//46 120//46 119//46
f 116//67 115//67 119//67 120//67
f 115//68 113//68 117//68 119//68
f 113//69 114//69 118//69 117//69
f 121//46 122//46 124//46 123//46
f 126//2 128//2 145//2 146//2
f 122//46 121//46 131//46 132//46
f 121//46 123//46 135//46 136//46
f 126//2 125//2 127//2 128//2
f 88//23 126//23 146//23 142//23
f 123//46 124//46 128//46 127//46
f 131//46 121//46 136//46 139//46
f 129//1 130//1 132//1 131//1
f 85//23 129//23 140//23 134//23
f 85//23 86//23 130//23 129//23
f 124//46 122//46 143//46 144//46
f 133//3 134//3 136//3 135//3
f 133//3 135//3 138//3 137//3
f 136//3 134//3 140//3 139//3
f 125//23 87//23 133//23 137//23
f 127//2 125//2 137//2 138//2
f 129//1 131//1 139//1 140//1
f 123//46 127//46 138//46 135//46
f 87//23 85//23 134//23 133//23
f 141//4 142//4 144//4 143//4
f 144//4 142//4 146//4 145//4
f 141//4 143//4 147//4 148//4
f 132//1 130//1 148//1 147//1
f 128//46 124//46 144//46 145//46
f 86//23 88//23 142//23 141//23
f 130//23 86//23 141//23 148//23
f 122//46 132//46 147//46 143//46
f 156//2 154//2 152//2 151//2
f 154//3 153//3 150//3 152//3
f 155//4 156//4 151//4 149//4
f 167//1 155//1 149//1 166//1
f 158//1 44//1 155//1 167//1
f 44//4 48//4 156//4 155//4
f 47//3 43//3 153//3 154//3
f 48//2 47//2 154//2 156//2
f 171//1 158//1 167//1 169//1
f 167//70 166//70 180//70 179//70
f 50//43 80//43 165//43 159//43
f 72//39 163//39 164//39 76//39
f 76//38 164//38 165//38 80//38
f 68//37 162//37 163//37 72//37
f 60//2 160//2 161//2 64//2
f 64//32 161//32 162//32 68//32
f 170//28 157//28 158//28 171//28
f 168//1 166//1 159//1 172//1
f 40//27 157//27 160//27 60//27
f 150//1 168//1 172//1 49//1
f 39//28 170//28 171//28 43//28
f 153//1 169//1 168//1 150//1
f 43//1 171//1 169//1 153//1
f 159//43 165//43 178//43 172//43
f 163//39 176//39 177//39 164//39
f 164//38 177//38 178//38 165//38
f 162//37 175//37 176//37 163//37
f 160//2 173//2 174//2 161//2
f 161//32 174//32 175//32 162//32
f 157//27 170//27 173//27 160//27
f 181//3 182//3 186//3 185//3
f 169//71 167//71 179//71 182//71
f 168//72 169//72 182//72 181//72
f 166//73 168//73 181//73 180//73
f 186//1 183//1 184//1 185//1
f 180//74 181//74 185//74 184//74
f 182//75 179//75 183//75 186//75
f 179//4 180//4 184//4 183//4
